{"glyphs":{":":{"x_min":0,"x_max":359,"ha":359,"o":"m 119 249 q 119 253 122 255 q 134 268 146 281 q 158 295 165 306 q 167 310 172 310 q 175 310 177 309 q 179 308 180 306 q 187 301 206 283 q 224 266 231 261 q 238 256 238 250 q 238 248 236 244 q 234 241 234 240 q 229 231 213 213 q 197 194 188 189 q 185 187 182 187 q 179 187 176 189 q 167 194 150 210 q 133 226 124 238 q 119 244 119 249 z m 119 40 q 119 44 122 47 q 134 60 146 73 q 158 87 165 97 q 167 102 172 102 q 176 102 178 100 q 180 98 180 98 q 185 94 205 76 q 226 56 231 53 q 238 47 238 42 q 238 39 236 36 q 234 33 234 32 q 229 23 213 5 q 197 -14 188 -19 q 185 -21 182 -21 q 179 -21 176 -19 q 167 -14 150 2 q 133 18 124 30 q 119 36 119 40 z"},"$":{"x_min":0,"x_max":498,"ha":498,"o":"m 42 19 q 42 14 48 11 q 70 -2 119 -9 q 167 -15 203 -15 q 209 -15 211 -17 q 213 -19 213 -25 q 213 -50 211 -99 q 209 -146 209 -169 q 209 -174 211 -177 q 212 -181 216 -181 q 220 -181 224 -178 q 244 -153 250 -139 q 252 -133 253 -129 q 254 -125 254 -117 q 254 -101 253 -65 q 252 -31 252 -15 q 252 -12 253 -11 q 254 -10 256 -9 q 258 -7 260 -7 q 305 13 342 50 q 379 86 399 126 q 420 166 420 193 q 420 234 396 262 q 373 291 330 312 q 292 331 255 352 q 250 354 248 358 q 246 362 246 366 l 246 528 q 246 531 248 533 q 251 535 254 535 q 269 535 281 532 q 294 528 313 521 l 328 516 q 332 515 337 515 q 343 515 348 520 q 355 526 369 545 q 383 563 390 576 q 394 582 394 585 q 394 587 393 590 q 391 593 388 594 q 355 606 323 612 q 291 617 250 617 q 246 617 246 620 l 245 648 q 245 656 245 669 q 245 678 243 680 q 242 683 238 683 q 236 683 234 681 q 224 669 217 660 q 210 650 209 648 q 205 641 205 631 l 205 614 q 205 610 203 608 q 201 606 197 604 q 169 595 151 583 q 133 571 122 559 q 111 546 94 523 q 75 499 67 473 q 59 448 59 420 q 59 366 95 339 q 115 324 151 303 q 187 283 209 273 q 214 271 214 265 l 214 74 q 214 64 207 64 q 191 64 161 71 q 131 79 110 86 q 102 88 98 88 q 95 88 92 85 q 61 51 46 30 q 46 28 44 25 q 42 21 42 19 z m 199 535 q 207 535 207 524 q 207 507 209 445 q 211 393 211 385 q 211 382 209 380 q 208 378 206 378 q 204 378 203 379 l 190 385 q 168 396 154 406 q 139 416 129 430 q 119 445 119 467 q 119 486 130 501 q 140 517 158 526 q 177 535 199 535 z m 250 154 q 248 210 248 242 q 248 245 250 246 q 251 248 253 248 q 255 248 255 247 q 267 241 285 229 q 304 218 314 210 q 326 201 334 183 q 342 165 342 143 q 342 125 334 109 q 326 92 315 83 q 304 73 287 67 q 271 62 258 62 q 250 62 250 71 z"},"?":{"x_min":0,"x_max":359,"ha":359,"o":"m 138 311 q 145 320 160 340 q 191 378 207 406 q 222 433 222 462 q 222 499 201 518 q 181 538 151 546 q 122 554 73 560 q 63 562 63 569 q 63 575 82 597 q 101 619 110 627 q 113 630 116 631 q 119 632 125 632 q 143 632 176 624 q 209 616 234 602 q 261 586 279 559 q 296 532 296 500 q 296 469 283 438 q 270 408 250 382 q 231 355 203 324 q 186 304 186 280 q 186 271 190 258 q 195 246 207 234 q 212 229 212 223 q 212 221 211 218 q 210 215 209 213 q 207 206 196 190 q 185 174 179 169 q 174 165 169 165 q 165 165 161 167 q 142 182 127 204 q 113 226 113 250 q 113 267 120 281 q 127 296 138 311 z m 112 42 q 112 46 115 49 q 144 78 158 99 q 161 104 166 104 q 168 104 170 102 q 172 100 173 100 q 180 95 199 77 q 217 59 224 54 q 231 49 231 43 q 231 41 229 38 q 228 35 227 33 q 222 25 206 7 q 190 -12 181 -18 q 179 -19 175 -19 q 171 -19 169 -18 q 160 -12 143 4 q 126 20 116 32 q 112 38 112 42 z"},"<":{"x_min":0,"x_max":499,"ha":499,"o":"m 66 262 l 66 292 q 66 298 69 301 q 72 304 81 308 q 142 338 220 382 l 250 398 q 276 414 326 442 q 375 471 391 480 q 396 483 399 483 q 404 483 409 474 l 427 441 q 430 438 430 434 q 430 428 422 423 q 404 414 353 387 q 301 359 279 347 l 155 277 q 189 257 252 222 l 280 207 q 317 186 361 163 q 405 140 422 130 q 431 126 431 120 q 431 117 428 113 l 409 80 q 404 71 400 71 q 396 71 392 74 l 250 156 q 227 168 160 204 q 93 239 80 247 q 78 248 74 250 q 70 252 68 255 q 66 257 66 262 z"},"'":{"x_min":0,"x_max":271,"ha":271,"o":"m 108 458 q 108 467 109 473 q 109 478 112 482 q 140 515 168 543 q 172 548 178 548 q 182 548 185 543 q 187 539 188 531 q 189 522 190 519 l 191 503 q 191 493 192 479 q 193 466 193 452 q 193 437 188 409 q 182 368 179 350 q 175 326 171 297 q 167 269 162 238 q 160 224 148 224 q 145 224 141 228 q 138 231 138 239 z"},"=":{"x_min":0,"x_max":499,"ha":499,"o":"m 427 408 q 434 408 437 405 q 439 402 439 394 l 439 356 q 439 350 436 346 q 433 343 425 343 q 406 344 356 345 q 307 346 264 346 q 214 346 155 345 q 95 344 72 343 q 63 343 61 346 q 58 350 58 356 l 58 394 q 58 401 61 404 q 63 408 72 408 q 94 407 160 406 q 227 405 262 405 q 293 405 351 406 q 408 407 427 408 z m 427 218 q 433 218 436 215 q 439 212 439 204 l 439 166 q 439 153 425 153 q 406 153 348 155 q 290 156 264 156 q 234 156 165 155 q 95 153 72 153 q 63 153 61 156 q 58 160 58 166 l 58 204 q 58 211 61 214 q 63 218 72 218 q 94 217 160 216 q 227 215 262 215 q 293 215 351 216 q 408 217 427 218 z"},"a":{"x_min":0,"x_max":459,"ha":459,"o":"m 304 70 q 263 28 220 7 q 177 -15 143 -15 q 118 -15 94 -3 q 70 8 55 31 q 39 55 39 91 q 39 125 51 150 q 62 175 83 196 q 101 214 124 227 q 146 240 190 252 q 233 264 304 274 l 304 343 q 304 378 287 399 q 269 420 227 420 q 205 420 185 412 q 165 403 153 388 q 141 373 143 354 q 143 348 129 342 q 115 335 95 330 q 76 325 65 325 q 61 325 60 326 l 53 345 q 67 376 102 405 q 137 434 181 451 q 225 469 266 469 q 319 469 348 441 q 377 413 377 362 l 377 87 q 377 49 397 49 q 413 49 445 62 l 452 40 q 412 12 385 -1 q 357 -15 343 -15 q 327 -15 316 8 q 305 31 304 70 z m 304 237 q 252 229 221 220 q 191 212 175 203 q 159 194 147 182 q 119 152 119 112 q 119 88 128 74 q 137 60 149 54 q 161 49 172 49 q 232 49 304 111 z"},"L":{"x_min":0,"x_max":476,"ha":476,"o":"m 24 0 l 24 21 q 57 27 76 36 q 95 44 95 51 l 95 564 q 95 570 76 579 q 58 588 24 594 l 24 615 l 244 615 l 244 594 q 211 587 192 579 q 173 571 173 564 l 173 80 q 173 62 193 53 q 213 44 264 44 l 334 44 q 367 44 384 49 q 401 55 413 72 q 426 89 440 128 l 461 119 q 456 57 441 0 z"},"3":{"x_min":0,"x_max":499,"ha":499,"o":"m 122 88 q 123 88 124 88 q 125 87 125 87 q 189 67 225 67 q 286 67 318 100 q 330 111 338 131 q 346 150 346 167 q 346 195 336 215 q 326 235 305 252 q 287 267 244 277 q 201 287 164 287 q 159 287 159 292 q 159 295 160 297 l 172 314 q 189 340 198 349 q 206 357 224 362 q 241 367 261 379 q 281 391 295 409 q 310 428 310 450 q 310 476 296 489 q 283 501 263 509 q 239 520 201 526 q 164 533 122 533 q 111 533 111 541 q 111 545 114 549 q 124 564 166 613 q 171 619 179 619 q 194 619 225 615 q 256 611 289 601 q 323 591 344 575 q 368 557 377 536 q 387 516 387 489 q 387 458 368 425 q 350 393 307 364 q 304 361 304 359 q 304 357 306 354 q 309 352 312 351 q 347 340 373 319 q 398 297 412 270 q 425 243 425 214 q 425 165 397 115 q 370 64 329 32 q 300 8 267 -2 q 234 -13 203 -13 q 170 -13 134 -6 q 98 1 77 11 q 73 12 70 14 q 67 16 67 19 q 67 20 69 21 q 70 23 70 24 q 78 37 91 54 q 104 72 110 78 q 112 80 116 84 q 119 88 122 88 z"},";":{"x_min":0,"x_max":359,"ha":359,"o":"m 116 286 q 116 291 119 293 q 146 321 162 343 q 165 347 169 347 q 173 347 178 344 q 185 339 204 321 q 221 303 229 298 q 235 293 235 288 q 235 285 233 282 q 231 279 231 277 q 227 269 210 250 q 194 232 186 227 q 182 225 180 225 q 177 225 173 227 q 164 232 147 248 q 130 264 121 275 q 119 278 118 281 q 116 284 116 286 z m 139 53 q 139 54 138 56 q 138 58 138 60 q 138 63 140 67 q 147 78 162 97 q 177 116 189 129 q 193 133 197 133 q 202 133 204 128 q 213 112 223 88 q 232 63 232 40 q 232 5 215 -35 q 210 -47 189 -86 q 167 -126 147 -158 q 126 -190 121 -190 q 118 -190 115 -189 q 112 -188 112 -185 q 112 -181 123 -139 q 137 -89 144 -58 q 151 -27 151 -11 q 151 8 148 23 q 145 38 139 53 z"},"J":{"x_min":0,"x_max":305,"ha":305,"o":"m 200 100 q 200 28 188 -18 q 175 -63 155 -89 q 135 -115 103 -141 q 79 -160 44 -173 q 9 -186 -12 -186 q -31 -186 -49 -178 q -68 -171 -80 -162 q -93 -152 -93 -146 q -93 -139 -72 -121 q -50 -103 -36 -98 q -10 -115 5 -120 q 21 -125 41 -125 q 61 -125 79 -108 q 97 -91 110 -49 q 122 -6 122 65 l 122 564 q 122 581 27 594 l 27 615 l 271 615 l 271 594 q 238 587 219 579 q 200 571 200 564 z"},"V":{"x_min":0,"x_max":650,"ha":650,"o":"m 367 29 q 357 0 294 -15 l 79 562 q 74 575 58 583 q 41 590 10 594 l 10 615 l 222 615 l 222 594 q 188 592 173 586 q 158 581 158 570 q 158 567 160 563 l 332 99 l 496 562 q 497 564 497 568 q 497 578 481 584 q 465 589 427 594 l 427 615 l 630 615 l 630 594 q 592 587 575 581 q 559 575 554 562 z"},"\"":{"x_min":0,"x_max":493,"ha":493,"o":"m 108 458 q 108 467 109 473 q 109 478 112 482 q 140 515 168 543 q 172 548 178 548 q 182 548 185 543 q 187 539 188 531 q 189 522 190 519 l 191 503 q 191 493 192 479 q 193 466 193 452 q 193 443 188 409 q 184 372 162 238 q 160 224 148 224 q 145 224 141 228 q 138 231 138 239 z m 313 458 q 313 467 314 473 q 314 478 317 482 q 340 509 374 543 q 378 548 383 548 q 387 548 390 543 q 393 540 394 535 q 395 530 395 526 q 395 521 396 519 q 396 506 397 487 q 398 468 398 452 q 398 444 396 422 l 394 409 q 389 368 368 238 q 365 224 354 224 q 350 224 347 228 q 343 231 343 239 z"},"7":{"x_min":0,"x_max":499,"ha":499,"o":"m 223 281 l 237 305 q 281 379 306 426 q 330 473 330 494 q 330 500 327 501 q 323 503 316 503 l 62 503 q 54 503 49 509 q 43 514 43 521 q 43 523 44 525 q 45 527 45 528 q 60 555 79 580 q 97 606 113 622 q 115 624 118 626 q 121 628 123 628 q 131 628 134 617 q 138 603 142 597 q 146 591 155 590 q 163 588 182 588 l 439 588 q 449 588 452 584 q 455 581 455 576 q 455 565 438 529 q 425 500 399 459 q 374 418 332 354 q 326 346 321 339 q 317 333 314 328 q 281 279 253 227 q 225 175 213 135 q 208 120 204 104 q 200 89 200 83 q 200 71 190 59 q 180 42 160 23 q 140 3 121 -12 q 118 -15 114 -18 q 109 -20 107 -20 q 104 -20 102 -18 q 100 -16 100 -12 q 100 35 119 89 q 131 120 154 161 q 176 202 223 281 z"},"S":{"x_min":0,"x_max":476,"ha":476,"o":"m 64 33 q 61 35 59 50 q 57 65 57 86 q 57 134 64 158 l 84 156 q 105 101 148 72 q 190 44 242 44 q 271 44 300 60 q 329 76 348 102 q 366 128 366 158 q 366 193 347 219 q 328 244 300 261 q 272 277 224 299 q 171 324 139 343 q 107 363 84 395 q 62 426 62 472 q 62 506 82 543 q 103 580 146 605 q 190 630 257 630 q 301 630 343 617 q 384 604 402 585 q 403 583 403 581 q 403 571 389 551 q 375 530 364 520 l 346 523 q 321 553 290 567 q 259 581 228 581 q 194 581 171 568 q 148 555 137 535 q 125 515 125 495 q 125 470 142 450 q 159 430 184 415 q 209 400 253 378 q 311 351 346 328 q 382 305 407 270 q 432 234 432 184 q 432 138 407 92 q 383 46 333 16 q 284 -15 215 -15 q 182 -15 140 -1 q 98 12 64 33 z"},"}":{"x_min":0,"x_max":357,"ha":357,"o":"m 178 348 l 178 492 q 178 518 168 542 q 159 565 134 577 l 78 603 q 73 605 73 609 q 73 611 80 615 q 90 622 106 627 q 114 630 120 630 q 125 630 137 625 q 150 620 154 619 q 190 604 210 584 q 230 564 239 537 q 248 509 248 467 l 248 328 q 248 310 250 299 q 252 288 260 277 q 268 267 286 259 q 292 256 294 254 q 296 251 296 247 q 296 239 286 234 q 268 226 260 216 q 252 206 250 195 q 248 184 248 166 l 248 40 q 248 -3 240 -31 q 231 -59 211 -79 q 190 -98 154 -113 q 136 -121 94 -133 q 82 -136 80 -136 q 73 -136 73 -131 q 73 -127 75 -124 q 78 -118 80 -114 q 83 -110 84 -106 l 89 -97 q 92 -93 94 -90 q 96 -87 100 -86 q 105 -83 115 -79 q 124 -76 129 -74 q 178 -54 178 14 l 178 146 q 178 169 184 185 q 189 201 200 212 q 211 223 231 238 q 232 238 234 241 q 236 244 236 247 q 236 250 235 251 q 234 253 233 254 q 231 255 231 255 q 210 271 200 282 q 189 293 184 309 q 178 324 178 348 z"},"Z":{"x_min":0,"x_max":523,"ha":523,"o":"m 43 0 l 29 22 l 376 566 l 152 566 q 141 566 128 556 q 116 546 105 524 q 94 502 87 470 l 59 476 l 73 623 q 98 618 115 616 q 133 615 166 615 l 467 615 l 479 594 l 135 49 l 390 49 q 404 49 415 58 q 425 66 435 88 q 444 109 457 150 l 484 143 q 479 38 478 0 z"},"x":{"x_min":0,"x_max":503,"ha":503,"o":"m 300 21 q 322 23 334 27 q 346 31 346 42 q 346 51 336 64 l 239 195 l 147 64 q 140 54 140 45 q 140 33 155 28 q 169 23 195 21 l 195 0 l 10 0 l 10 21 q 45 26 63 38 q 82 49 94 67 l 213 232 l 98 389 q 88 404 79 412 q 70 420 55 426 q 40 431 15 433 l 15 454 l 220 454 l 220 433 q 196 431 185 426 q 173 421 173 411 q 173 403 182 390 l 261 282 l 336 390 q 346 403 346 413 q 346 422 334 426 q 323 431 300 433 l 300 454 l 486 454 l 486 433 q 448 430 426 419 q 404 408 390 389 l 288 245 l 418 67 q 433 49 450 37 q 467 25 496 21 l 496 0 l 300 0 z"},")":{"x_min":0,"x_max":359,"ha":359,"o":"m 229 44 q 215 16 195 -21 q 174 -57 169 -66 q 157 -85 142 -105 q 136 -111 122 -125 q 108 -139 97 -148 q 90 -151 88 -151 q 83 -151 83 -144 q 83 -141 127 -56 q 135 -40 143 -24 q 151 -9 156 0 q 181 54 194 103 q 208 152 208 198 q 208 235 199 284 q 190 333 175 374 q 159 416 140 449 q 120 483 94 521 q 91 525 89 529 q 87 533 87 537 q 87 543 89 547 q 108 585 124 605 q 127 611 132 611 q 137 611 141 605 q 172 563 198 522 q 223 482 242 434 q 261 389 271 335 q 281 281 281 241 q 281 183 267 136 q 253 90 229 44 z"},"&":{"x_min":0,"x_max":663,"ha":663,"o":"m 316 630 q 337 630 356 619 q 375 608 387 585 q 398 562 398 528 q 398 490 367 452 q 335 413 295 382 l 302 373 q 317 353 370 281 q 423 210 469 154 q 482 170 491 194 q 500 217 500 239 q 500 264 494 281 q 488 298 479 317 q 477 322 477 324 q 477 329 481 333 q 493 345 512 364 q 532 383 539 389 q 540 390 542 392 q 543 393 544 393 q 548 393 551 387 q 558 374 564 347 q 570 320 570 296 q 570 248 552 208 q 534 167 498 122 q 533 76 560 48 q 561 47 563 44 q 566 42 566 40 q 566 39 563 38 q 538 22 502 2 q 496 -1 491 -1 q 488 -1 486 1 q 483 2 483 2 q 474 11 455 35 q 435 58 432 64 q 404 45 382 33 q 359 20 328 10 q 297 0 263 0 q 226 0 186 19 q 147 39 121 79 q 94 120 94 180 q 94 226 116 264 q 137 303 162 326 q 187 350 204 361 q 194 377 188 389 q 181 401 173 422 q 166 443 166 476 q 166 515 192 553 q 219 591 256 613 q 288 630 316 630 z m 261 438 l 272 419 q 299 440 313 461 q 327 482 327 510 q 327 526 319 540 q 310 554 297 563 q 284 571 271 571 q 253 571 239 562 q 224 553 224 534 q 224 511 233 490 q 243 468 261 438 z m 312 62 q 343 62 368 74 q 393 85 406 97 q 384 121 312 214 q 241 307 230 325 q 218 317 204 301 q 190 285 179 259 q 168 234 168 202 q 168 164 187 132 q 205 100 238 81 q 271 62 312 62 z"},"v":{"x_min":0,"x_max":493,"ha":493,"o":"m 291 29 q 279 -2 225 -15 l 64 400 q 60 413 47 420 q 35 427 10 433 l 10 454 l 198 454 l 198 433 q 166 429 153 424 q 141 419 141 410 q 141 406 143 400 l 263 87 l 376 400 q 378 405 378 410 q 378 419 367 424 q 355 429 325 433 l 325 454 l 483 454 l 483 433 q 462 428 453 424 q 443 420 438 415 q 433 410 429 400 z"},"O":{"x_min":0,"x_max":600,"ha":600,"o":"m 34 299 q 34 386 71 463 q 108 539 171 584 q 234 630 309 630 q 386 630 442 586 q 498 542 527 470 q 556 398 556 316 q 556 229 518 153 q 480 77 417 31 q 354 -15 281 -15 q 205 -15 149 29 q 93 72 64 144 q 34 215 34 299 z m 110 313 q 110 241 135 179 q 161 117 203 81 q 246 44 295 44 q 350 44 391 74 q 433 104 457 164 q 480 223 480 307 q 480 375 457 437 q 433 498 391 536 q 348 574 295 574 q 238 574 196 542 q 154 510 132 451 q 110 392 110 313 z"},"(":{"x_min":0,"x_max":359,"ha":359,"o":"m 188 86 q 204 44 224 10 q 243 -24 270 -62 q 275 -71 275 -78 q 275 -84 274 -87 q 256 -124 240 -146 q 236 -151 231 -151 q 226 -151 222 -146 q 154 -55 121 25 q 103 70 93 124 q 83 178 83 219 q 83 258 90 292 q 97 327 107 353 q 118 379 134 413 q 144 434 167 475 q 190 515 196 525 q 208 548 221 564 q 227 571 241 584 q 255 598 266 607 q 268 608 271 610 q 273 611 275 611 q 281 611 281 603 q 281 601 259 558 q 236 515 230 503 l 207 459 q 182 405 168 356 q 155 308 155 262 q 155 224 164 175 q 172 126 188 86 z"},"C":{"x_min":0,"x_max":536,"ha":536,"o":"m 34 286 q 34 387 74 466 q 114 544 182 587 q 250 630 330 630 q 379 630 420 616 q 460 603 488 581 q 493 577 477 558 q 461 538 444 521 l 427 524 q 400 548 366 562 q 331 576 289 576 q 251 576 209 548 q 168 521 139 459 q 110 398 110 304 q 110 222 140 163 q 171 104 218 74 q 265 44 314 44 q 343 44 386 63 q 429 83 479 125 q 483 123 490 114 q 496 104 497 103 q 438 39 385 12 q 332 -15 279 -15 q 217 -15 161 22 q 104 59 69 127 q 34 196 34 286 z"},"W":{"x_min":0,"x_max":850,"ha":850,"o":"m 645 29 q 639 -1 577 -15 l 418 461 l 278 29 q 271 10 252 1 q 232 -8 204 -15 l 77 560 q 75 572 59 580 q 44 588 10 594 l 10 615 l 219 615 l 219 594 q 181 590 167 583 q 152 576 152 565 q 152 562 153 560 l 250 122 l 408 615 l 435 615 l 608 122 l 699 564 q 701 574 682 581 q 663 588 624 594 l 624 615 l 831 615 l 831 594 q 790 586 774 579 q 758 572 757 564 z"},"A":{"x_min":0,"x_max":595,"ha":595,"o":"m 132 54 q 131 50 131 48 q 131 37 148 31 q 165 25 203 21 l 203 0 l 0 0 l 0 21 q 38 28 55 34 q 73 41 77 54 l 259 604 q 269 615 283 624 q 297 633 316 643 l 521 54 q 526 40 540 32 q 555 24 585 21 l 585 0 l 379 0 l 379 21 q 412 23 427 29 q 442 34 442 46 q 442 50 441 54 l 385 217 l 186 217 z m 370 261 l 284 512 l 201 261 z"},"f":{"x_min":0,"x_max":311,"ha":311,"o":"m 254 696 q 234 696 216 678 q 197 660 184 615 q 171 571 171 496 l 171 454 l 297 454 l 311 440 q 302 426 287 410 q 272 395 263 391 q 230 408 171 408 l 171 50 q 171 44 193 38 q 215 32 273 21 l 273 0 l 29 0 l 29 21 q 61 26 79 35 q 98 43 98 50 l 98 408 l 32 408 l 22 421 l 60 454 l 98 454 l 98 469 q 98 542 110 588 q 123 634 143 660 q 163 687 195 712 q 220 732 253 744 q 287 757 307 757 q 326 757 347 748 q 369 739 384 727 q 399 716 399 710 q 399 703 376 683 q 353 664 337 656 q 315 675 292 685 q 269 696 254 696 z"},"Q":{"x_min":0,"x_max":600,"ha":600,"o":"m 380 -68 q 354 -48 337 -36 q 320 -23 303 -13 q 292 -15 281 -15 q 210 -15 154 28 q 98 70 66 142 q 34 213 34 299 q 34 386 71 463 q 108 539 171 584 q 234 630 309 630 q 386 630 442 586 q 498 542 527 470 q 556 398 556 316 q 556 248 532 186 q 508 124 467 76 q 426 29 374 6 q 396 -6 432 -29 q 470 -53 494 -66 q 519 -78 541 -78 q 553 -78 568 -70 q 583 -62 613 -40 l 626 -57 q 604 -98 579 -124 q 554 -149 538 -149 q 513 -149 487 -138 q 461 -127 438 -111 q 414 -95 380 -68 z m 110 313 q 110 241 135 179 q 161 117 203 81 q 246 44 295 44 q 350 44 391 74 q 433 104 457 164 q 480 223 480 307 q 480 375 457 437 q 433 498 391 536 q 348 574 295 574 q 238 574 196 542 q 154 510 132 451 q 110 392 110 313 z"},"w":{"x_min":0,"x_max":706,"ha":706,"o":"m 539 29 q 530 -1 472 -15 l 356 316 l 256 29 q 246 -2 191 -15 l 63 403 q 61 412 47 420 q 34 428 10 433 l 10 454 l 198 454 l 198 433 q 163 429 149 424 q 136 418 136 410 q 136 407 137 403 l 229 93 l 349 454 l 383 454 l 510 93 l 594 403 q 595 404 595 407 q 595 416 582 422 q 568 428 537 433 l 537 454 l 696 454 l 696 433 q 676 429 666 425 q 657 420 653 416 q 649 411 647 403 z"},"-":{"x_min":0,"x_max":358,"ha":358,"o":"m 105 287 l 311 287 q 324 287 324 278 q 324 273 318 266 q 296 231 279 212 q 275 207 271 206 q 266 205 257 205 l 51 205 q 38 205 38 212 q 38 217 40 220 q 49 236 63 254 q 77 272 85 280 q 90 285 94 286 q 99 287 105 287 z"},"E":{"x_min":0,"x_max":496,"ha":496,"o":"m 24 0 l 24 21 q 57 27 76 36 q 95 44 95 51 l 95 564 q 95 570 76 579 q 58 588 24 594 l 24 615 l 418 615 l 434 603 q 433 579 427 546 q 420 513 414 493 l 392 493 q 390 537 380 554 q 371 571 352 571 l 173 571 l 173 359 l 371 359 l 384 345 q 375 331 362 314 q 349 298 339 291 q 323 306 303 312 q 282 318 242 318 l 173 318 l 173 75 q 173 64 181 58 q 188 51 210 48 q 231 44 273 44 l 336 44 q 369 44 386 49 q 404 55 418 72 q 431 90 445 128 l 466 119 q 462 82 457 50 q 451 19 446 0 z"},"s":{"x_min":0,"x_max":386,"ha":386,"o":"m 52 21 q 49 22 48 32 q 46 42 46 58 q 46 79 49 103 q 51 126 55 138 l 76 133 q 78 106 94 83 q 110 61 138 47 q 165 34 198 34 q 233 34 256 55 q 278 77 278 111 q 278 132 265 149 q 251 167 232 179 q 212 191 177 209 l 157 219 q 125 236 102 252 q 80 268 65 290 q 51 312 51 342 q 51 381 71 410 q 91 438 125 454 q 158 469 196 469 q 229 469 267 458 q 305 448 324 431 q 326 430 326 426 q 326 414 316 390 q 306 365 300 358 l 281 362 q 259 395 234 410 q 209 425 183 425 q 163 425 147 416 q 131 407 123 394 q 114 380 114 366 q 114 349 126 334 q 138 320 155 309 q 173 298 204 283 l 222 273 q 260 254 284 238 q 308 221 325 197 q 342 172 342 138 q 342 76 311 42 q 280 8 242 -3 q 204 -15 174 -15 q 149 -15 116 -5 q 83 4 52 21 z"},">":{"x_min":0,"x_max":499,"ha":499,"o":"m 99 65 q 94 62 89 62 q 86 62 84 64 q 83 66 81 69 l 60 103 q 57 106 57 110 q 57 114 59 117 q 61 120 64 122 q 84 132 144 163 q 204 194 231 209 q 303 250 349 278 l 231 347 q 209 359 149 390 q 88 421 67 432 q 60 438 60 443 q 60 447 62 450 l 81 485 q 85 493 92 493 q 96 493 99 491 q 119 479 169 449 q 220 419 264 394 q 294 376 396 323 l 424 308 q 432 304 436 301 q 439 297 439 292 l 439 262 q 439 257 436 254 q 433 250 424 246 l 267 163 q 244 151 182 114 q 120 78 99 65 z"},"l":{"x_min":0,"x_max":271,"ha":271,"o":"m 29 21 q 70 28 86 35 q 103 42 103 51 l 103 633 q 103 662 97 675 q 91 687 79 691 q 67 694 34 698 l 34 718 q 75 726 103 734 q 131 742 158 757 l 176 740 l 176 51 q 176 43 194 35 q 211 27 249 21 l 249 0 l 29 0 z"},"8":{"x_min":0,"x_max":499,"ha":499,"o":"m 158 309 q 163 311 163 315 q 163 317 161 318 q 132 333 110 365 q 87 396 87 444 q 87 460 93 480 q 99 500 108 514 q 121 534 144 557 q 167 581 185 592 q 200 604 219 611 q 238 619 263 619 q 301 619 333 601 q 365 584 384 554 q 402 524 402 487 q 402 448 382 414 q 361 379 330 356 l 321 350 q 314 345 312 342 q 311 341 311 339 q 311 334 313 333 q 326 327 344 314 q 363 301 378 290 q 402 271 416 243 q 431 215 431 184 q 431 155 417 124 q 404 92 381 65 q 354 34 312 10 q 271 -14 234 -14 q 206 -14 168 1 q 131 16 106 43 q 57 94 57 159 q 57 214 85 249 q 113 284 158 309 z m 327 458 q 327 479 313 499 q 298 519 275 531 q 252 542 227 542 q 207 542 193 530 q 179 518 173 500 q 166 481 166 462 q 166 431 187 409 q 208 388 237 375 q 251 368 255 368 q 260 368 262 369 q 291 385 309 407 q 327 430 327 458 z m 308 239 q 294 248 275 259 q 255 269 235 279 q 232 280 221 286 q 219 287 216 287 q 214 287 212 286 q 199 282 181 269 q 164 256 149 235 q 135 213 135 186 q 135 152 152 125 q 168 98 198 83 q 229 67 266 67 q 308 67 329 92 q 350 118 350 164 q 350 188 338 207 q 327 227 308 239 z"},"\\":{"x_min":0,"x_max":359,"ha":359,"o":"m 52 508 q 51 510 45 520 q 40 530 40 536 q 40 542 42 552 q 45 562 49 573 q 51 578 53 583 q 58 595 64 595 q 69 595 73 588 l 196 280 l 204 261 q 240 168 263 114 q 285 60 311 7 q 316 -3 316 -14 q 316 -21 314 -38 q 312 -56 309 -67 q 308 -71 305 -75 q 302 -80 299 -80 q 296 -80 293 -76 q 291 -73 287 -65 l 164 248 q 124 348 101 401 q 78 454 52 508 z"},"e":{"x_min":0,"x_max":462,"ha":462,"o":"m 112 239 q 113 188 131 145 q 148 101 181 75 q 214 49 257 49 q 280 49 299 53 q 317 58 342 72 q 367 86 402 115 q 411 110 420 95 q 377 48 346 25 q 316 1 290 -7 q 263 -15 227 -15 q 177 -15 134 14 q 90 42 65 94 q 39 145 39 212 q 39 278 68 337 q 97 396 147 430 q 170 446 200 458 q 231 469 256 469 q 315 469 353 438 q 391 408 407 364 q 423 319 423 272 q 407 254 369 239 z m 324 283 q 335 283 339 287 q 343 291 343 301 q 343 324 334 350 q 326 377 304 397 q 281 417 242 417 q 209 417 182 401 q 156 384 138 353 q 121 323 115 283 z"},"b":{"x_min":0,"x_max":508,"ha":508,"o":"m 68 47 l 68 633 q 68 663 64 675 q 59 688 48 691 q 37 694 5 698 l 5 718 q 48 728 73 736 q 99 744 124 757 q 128 752 134 747 q 140 742 142 740 l 142 355 q 172 392 204 418 q 236 443 264 456 q 292 469 311 469 q 355 469 390 441 q 425 414 444 362 q 464 310 464 240 q 464 182 434 122 q 405 63 351 24 q 297 -15 229 -15 q 209 -15 164 2 q 119 19 68 47 z m 142 298 l 142 99 q 176 73 215 61 q 253 49 277 49 q 315 49 342 70 q 370 91 384 126 q 398 161 398 199 q 398 262 381 308 q 364 354 337 378 q 309 403 277 403 q 263 403 241 393 q 220 382 193 359 q 167 335 142 298 z"},"%":{"x_min":0,"x_max":498,"ha":498,"o":"m 152 326 q 184 326 207 349 q 230 372 245 399 q 257 421 267 453 q 277 485 277 513 q 277 550 267 578 q 256 605 230 624 q 221 630 213 633 q 206 635 194 635 q 175 635 158 625 q 137 613 112 587 q 87 562 76 543 q 67 529 62 511 q 56 494 56 463 q 56 426 64 404 q 71 382 83 365 q 92 349 112 337 q 131 326 152 326 z m 57 9 q 57 0 67 0 q 71 0 73 1 q 80 3 91 10 q 102 17 113 25 q 119 30 123 38 q 128 47 135 66 q 159 119 259 289 l 269 305 q 293 344 365 470 q 438 597 443 614 q 447 624 447 627 q 447 633 442 633 q 436 633 430 629 q 402 612 389 603 q 383 599 380 594 q 376 589 373 581 q 360 551 312 462 q 265 373 213 286 q 106 106 60 18 q 57 13 57 9 z m 115 489 q 115 522 125 545 q 134 568 154 568 q 191 568 207 535 q 210 528 213 505 q 216 482 216 463 q 216 428 206 413 q 196 398 171 398 q 144 398 129 425 q 115 451 115 489 z m 323 -2 q 354 -2 377 21 q 400 43 416 72 q 428 94 438 126 q 448 158 448 186 q 448 219 438 249 q 427 278 404 294 q 383 308 365 308 q 355 308 347 305 q 338 302 329 297 q 307 285 284 261 q 262 238 248 217 q 227 186 226 140 q 226 99 234 76 q 242 53 253 38 q 264 21 283 10 q 301 -2 323 -2 z m 286 159 q 286 194 295 217 q 304 241 324 241 q 341 241 355 233 q 369 225 377 207 q 381 199 384 177 q 388 154 388 135 q 388 101 377 86 q 367 71 341 71 q 314 71 300 96 q 286 122 286 159 z"},"m":{"x_min":0,"x_max":803,"ha":803,"o":"m 579 21 q 615 30 631 37 q 647 44 647 51 l 647 309 q 647 349 641 371 q 636 393 624 401 q 612 410 592 410 q 560 410 521 375 q 481 341 444 280 l 444 51 q 444 44 460 37 q 475 31 513 21 l 513 0 l 303 0 l 303 21 q 339 30 355 37 q 371 44 371 51 l 371 309 q 371 349 366 371 q 360 393 349 401 q 337 410 316 410 q 284 410 248 377 q 212 344 168 280 l 168 51 q 168 43 187 36 q 205 28 237 21 l 237 0 l 27 0 l 27 21 q 63 31 79 37 q 95 43 95 51 l 95 347 q 95 375 91 386 q 87 397 74 402 q 61 406 27 410 l 27 430 q 61 435 87 444 q 113 454 144 469 l 161 452 l 167 340 q 208 402 254 436 q 299 469 336 469 q 444 469 444 354 l 444 344 q 484 403 530 436 q 575 469 612 469 q 661 469 690 442 q 720 415 720 362 l 720 51 q 720 44 736 37 q 751 31 789 21 l 789 0 l 579 0 z"},"#":{"x_min":0,"x_max":499,"ha":499,"o":"m 369 628 l 392 644 q 394 645 399 648 q 404 652 408 652 q 414 652 414 645 q 414 641 412 633 q 410 624 409 619 q 404 603 404 603 q 371 458 371 459 q 371 458 372 457 q 373 456 375 456 l 476 456 q 489 456 489 447 q 489 443 485 436 q 476 422 465 409 q 455 395 444 383 q 439 376 422 376 l 360 376 q 354 376 353 375 q 351 373 350 369 l 323 240 q 323 235 327 235 l 422 235 q 435 235 435 227 q 435 223 431 215 q 417 194 398 172 q 391 163 390 163 q 384 156 368 156 l 311 156 q 305 156 304 153 q 303 150 303 149 q 299 133 291 85 q 288 72 285 54 q 281 36 276 14 q 272 -8 264 -19 q 262 -21 254 -30 q 247 -38 239 -46 q 229 -58 225 -58 q 220 -58 218 -55 q 215 -53 215 -49 q 215 -46 218 -35 q 221 -24 224 -14 q 236 32 252 91 q 267 150 267 152 q 267 156 262 156 l 155 156 q 151 156 149 154 q 148 152 147 149 l 118 14 q 113 -10 106 -19 q 104 -21 96 -30 q 89 -38 81 -46 q 69 -58 67 -58 q 62 -58 59 -55 q 57 -53 57 -49 q 57 -46 60 -35 q 62 -24 66 -14 q 96 89 109 149 q 109 156 104 156 l 8 156 q -4 156 -4 164 q -4 167 -2 170 q 7 186 21 203 q 34 220 43 229 q 51 235 61 235 l 125 235 q 131 235 131 241 q 138 269 150 329 l 159 371 q 159 373 157 375 q 156 376 154 376 l 63 376 q 50 376 50 384 q 50 387 52 391 q 62 407 75 424 q 88 440 97 449 q 106 456 115 456 l 169 456 q 176 456 177 463 l 202 604 q 205 622 214 628 l 237 644 q 242 647 246 649 q 250 652 253 652 q 259 652 259 645 q 259 640 253 617 l 250 603 q 231 526 224 495 q 217 464 216 459 q 216 456 222 456 l 325 456 q 330 456 333 463 l 346 536 l 357 604 q 359 613 361 619 q 364 625 369 628 z m 167 239 q 167 235 173 235 l 277 235 q 282 235 285 237 q 287 239 287 241 l 293 271 q 314 368 314 372 q 314 374 312 375 q 311 376 308 376 l 204 376 q 201 376 199 375 q 197 373 196 369 z"},",":{"x_min":0,"x_max":359,"ha":359,"o":"m 139 53 q 139 54 138 56 q 138 58 138 60 q 138 63 140 67 q 147 78 162 97 q 177 116 189 129 q 193 133 197 133 q 202 133 204 128 q 213 112 223 88 q 232 63 232 40 q 232 5 215 -35 q 210 -47 189 -86 q 167 -126 147 -158 q 126 -190 121 -190 q 118 -190 115 -189 q 112 -188 112 -185 q 112 -181 123 -139 q 137 -89 144 -58 q 151 -27 151 -11 q 151 8 148 23 q 145 38 139 53 z"},"n":{"x_min":0,"x_max":552,"ha":552,"o":"m 327 21 q 363 30 379 37 q 396 44 396 51 l 396 309 q 396 349 389 369 q 383 390 370 397 q 357 405 333 405 q 299 405 256 372 q 212 338 168 268 l 168 51 q 168 43 187 36 q 205 28 237 21 l 237 0 l 27 0 l 27 21 q 63 31 79 37 q 95 43 95 51 l 95 347 q 95 375 92 386 q 88 396 75 401 q 62 406 27 410 l 27 430 q 83 438 144 469 l 161 452 l 167 330 q 194 372 229 403 q 265 435 300 452 q 335 469 361 469 q 390 469 415 457 q 439 445 454 421 q 469 397 469 362 l 469 51 q 469 44 484 37 q 499 31 537 21 l 537 0 l 327 0 z"},"h":{"x_min":0,"x_max":552,"ha":552,"o":"m 327 21 q 363 30 379 37 q 396 44 396 51 l 396 309 q 396 348 389 369 q 382 390 369 397 q 356 405 333 405 q 298 405 253 370 q 209 334 168 268 l 168 51 q 168 43 187 36 q 205 28 237 21 l 237 0 l 27 0 l 27 21 q 63 31 79 37 q 95 43 95 51 l 95 634 q 95 663 91 674 q 87 685 74 690 q 62 694 27 698 l 27 718 q 68 726 95 734 q 123 743 150 757 l 168 740 l 168 334 q 195 374 230 405 q 266 436 300 452 q 335 469 361 469 q 390 469 415 457 q 439 445 454 421 q 469 397 469 362 l 469 51 q 469 44 484 37 q 499 31 537 21 l 537 0 l 327 0 z"},"z":{"x_min":0,"x_max":442,"ha":442,"o":"m 50 0 l 37 22 l 308 410 l 139 410 q 121 410 106 394 q 91 378 82 337 l 58 343 l 67 462 q 86 457 102 455 q 118 454 153 454 l 393 454 l 404 433 l 132 44 l 338 44 q 350 44 361 63 q 371 82 382 126 l 405 121 q 405 87 403 52 q 402 16 399 0 z"},"B":{"x_min":0,"x_max":550,"ha":550,"o":"m 60 0 l 24 0 l 24 21 q 57 27 76 36 q 95 44 95 51 l 95 581 q 64 578 24 570 l 20 601 q 62 612 121 621 q 179 630 229 630 q 294 630 342 614 q 390 598 416 568 q 442 539 442 498 q 442 446 417 408 q 392 370 349 353 q 391 345 424 320 q 458 294 477 256 q 496 218 496 174 q 496 119 468 78 q 440 38 389 15 q 338 -7 273 -7 q 237 -7 161 -4 q 85 -1 60 0 z m 173 354 l 190 354 q 366 354 366 474 q 366 527 328 558 q 291 589 202 589 q 193 589 173 588 z m 173 51 q 173 47 178 43 q 206 34 262 34 q 309 34 343 50 q 378 65 397 93 q 416 121 416 157 q 416 196 398 233 q 380 270 344 293 q 307 317 254 317 q 217 317 173 310 z"},"K":{"x_min":0,"x_max":578,"ha":578,"o":"m 24 21 q 57 27 76 36 q 95 44 95 51 l 95 564 q 95 570 76 579 q 58 588 24 594 l 24 615 l 244 615 l 244 594 q 211 587 192 579 q 173 571 173 564 l 173 315 l 373 551 q 388 569 388 577 q 388 585 377 589 q 365 592 337 594 l 337 615 l 542 615 l 542 594 q 505 589 489 584 q 473 579 459 564 l 245 328 l 481 62 q 493 48 509 43 q 524 38 544 38 q 557 38 570 39 l 573 18 q 536 6 510 0 q 484 -7 463 -7 q 448 -7 438 -2 q 427 2 417 14 l 173 312 l 173 51 q 173 44 192 36 q 211 27 244 21 l 244 0 l 24 0 z"},"R":{"x_min":0,"x_max":561,"ha":561,"o":"m 24 21 q 57 27 76 36 q 95 44 95 51 l 95 581 q 66 577 51 574 l 24 570 l 20 601 q 78 615 124 622 q 171 630 229 630 q 302 630 353 611 q 403 592 428 558 q 453 525 453 482 q 453 415 416 369 q 378 324 315 305 l 463 68 q 475 51 490 44 q 504 38 527 38 q 538 38 551 39 l 556 18 q 480 -7 447 -7 q 433 -7 419 1 q 406 9 399 20 l 251 294 q 243 293 225 293 q 198 293 173 298 l 173 51 q 173 44 192 36 q 211 27 244 21 l 244 0 l 24 0 z m 173 337 q 194 334 217 334 q 294 334 335 368 q 377 402 377 467 q 377 523 336 556 q 295 589 211 589 q 192 589 173 587 z"},"T":{"x_min":0,"x_max":551,"ha":551,"o":"m 150 21 q 191 29 211 39 q 230 48 230 56 l 230 571 l 84 571 q 73 571 66 566 q 59 560 50 542 q 41 524 26 486 l 5 495 q 7 524 12 557 q 16 590 21 615 l 514 615 l 529 603 q 527 558 514 488 l 492 488 q 485 524 480 540 q 476 556 468 563 q 460 571 447 571 l 308 571 l 308 56 q 308 49 328 39 q 347 29 388 21 l 388 0 l 150 0 z"},"P":{"x_min":0,"x_max":523,"ha":523,"o":"m 24 21 q 57 27 76 36 q 95 44 95 51 l 95 581 q 68 578 24 570 l 20 601 q 69 614 130 622 q 191 630 249 630 q 319 630 371 610 q 423 590 451 551 q 479 512 479 457 q 479 394 447 350 q 415 305 368 283 q 322 261 280 261 q 234 261 201 276 l 190 312 q 222 298 265 298 q 297 298 329 314 q 361 331 383 362 q 404 394 404 437 q 404 488 380 522 q 356 557 315 573 q 273 589 221 589 q 205 589 173 588 l 173 51 q 173 35 259 21 l 259 0 l 24 0 z"},"|":{"x_min":0,"x_max":288,"ha":288,"o":"m 120 629 q 120 644 132 644 l 153 644 q 160 644 163 640 q 166 636 166 630 q 168 548 170 430 q 171 311 171 254 q 171 191 170 82 q 168 -28 166 -136 q 166 -143 163 -146 q 160 -150 153 -150 l 132 -150 q 120 -150 120 -135 q 118 -26 116 94 q 114 213 114 254 q 114 316 115 435 q 117 553 120 629 z"},"t":{"x_min":0,"x_max":344,"ha":344,"o":"m 83 108 l 83 408 l 20 408 l 10 421 l 48 454 l 83 454 l 83 574 l 141 625 l 156 613 l 156 454 l 316 454 l 330 440 q 320 426 305 410 q 290 395 281 391 q 247 408 182 408 l 156 408 l 156 150 q 156 110 161 89 q 167 67 178 58 q 189 49 209 49 q 251 49 316 82 l 330 57 q 284 23 240 4 q 195 -15 168 -15 q 131 -15 107 15 q 83 44 83 108 z"},"M":{"x_min":0,"x_max":806,"ha":806,"o":"m 696 51 q 696 44 715 36 q 733 27 767 21 l 767 0 l 544 0 l 544 21 q 578 28 599 36 q 620 44 620 51 l 616 508 l 402 0 l 378 0 l 161 504 l 156 51 q 156 44 175 36 q 194 27 227 21 l 227 0 l 29 0 l 29 21 q 62 27 81 36 q 100 44 100 51 l 105 575 q 88 584 69 589 q 50 594 34 594 l 34 615 l 174 615 q 181 615 185 612 q 188 609 192 602 q 196 595 205 574 l 399 134 l 586 574 q 595 595 599 603 q 604 611 607 613 q 610 615 617 615 l 757 615 l 757 594 q 743 594 726 590 q 708 585 691 577 z"},"g":{"x_min":0,"x_max":488,"ha":488,"o":"m 210 144 q 189 127 179 114 q 169 100 169 96 q 169 83 196 72 q 223 62 294 54 q 392 43 433 12 q 474 -19 474 -59 q 474 -110 437 -153 q 400 -195 343 -220 q 286 -244 228 -244 q 179 -244 129 -230 q 80 -216 47 -186 q 15 -156 15 -112 q 15 -92 25 -73 q 35 -55 63 -31 q 92 -8 145 21 q 89 41 89 75 q 89 85 104 104 q 119 123 159 151 q 109 165 79 202 q 49 240 49 294 q 49 340 76 381 q 103 421 146 445 q 190 469 237 469 q 265 469 291 460 q 317 452 338 437 q 383 441 414 449 q 444 458 473 469 l 483 454 q 481 451 477 440 q 473 429 467 421 q 462 413 455 405 q 416 398 378 397 q 405 358 405 313 q 405 265 377 226 q 350 188 305 166 q 260 144 212 144 z m 117 322 q 117 286 132 258 q 146 229 177 212 q 207 195 251 195 q 271 195 291 207 q 311 218 324 240 q 337 263 337 293 q 337 328 322 357 q 306 386 276 403 q 246 420 203 420 q 186 420 166 408 q 146 396 131 374 q 117 352 117 322 z m 88 -93 q 88 -120 111 -143 q 134 -166 173 -179 q 211 -193 255 -193 q 298 -193 331 -178 q 364 -163 382 -137 q 400 -110 400 -77 q 400 -57 388 -43 q 375 -29 343 -19 q 310 -8 253 -2 q 219 1 189 8 q 146 -16 124 -34 q 102 -53 95 -66 q 88 -80 88 -93 z"},"j":{"x_min":0,"x_max":259,"ha":259,"o":"m 90 596 q 90 614 98 629 q 105 645 118 653 q 131 662 146 662 q 188 662 188 616 q 188 588 172 568 q 155 549 132 549 q 90 549 90 596 z m -26 -244 q -45 -244 -64 -238 q -83 -232 -95 -224 q -107 -216 -107 -210 q -107 -203 -84 -183 q -61 -164 -45 -156 q -31 -169 -15 -174 q 1 -178 22 -178 q 55 -178 78 -133 q 100 -87 100 21 l 100 327 q 100 365 97 379 q 94 394 80 400 q 67 406 32 410 l 32 430 q 68 436 92 444 q 116 453 155 469 l 173 469 l 173 48 q 173 -23 162 -69 q 150 -116 130 -144 q 111 -171 81 -195 q 55 -216 24 -230 q -7 -244 -26 -244 z"},"i":{"x_min":0,"x_max":271,"ha":271,"o":"m 93 596 q 93 614 100 629 q 108 645 121 653 q 134 662 149 662 q 190 662 190 616 q 190 588 174 568 q 158 549 134 549 q 93 549 93 596 z m 34 21 q 66 27 84 36 q 103 44 103 51 l 103 327 q 103 366 100 380 q 97 394 83 400 q 69 407 34 410 l 34 430 q 66 436 101 446 q 135 457 159 469 l 176 469 l 176 51 q 176 44 194 36 q 211 27 244 21 l 244 0 l 34 0 z"},"y":{"x_min":0,"x_max":493,"ha":493,"o":"m 266 -40 q 240 -109 205 -155 q 170 -201 133 -222 q 96 -244 62 -244 q 38 -244 19 -240 q -1 -236 -12 -230 q -23 -225 -23 -218 q -23 -214 -13 -200 q -2 -187 11 -172 q 24 -158 34 -152 q 60 -167 88 -167 q 106 -167 122 -161 q 134 -157 150 -140 q 167 -123 183 -98 q 199 -72 210 -45 l 224 -11 l 64 400 q 60 413 47 420 q 35 427 10 433 l 10 454 l 198 454 l 198 433 q 166 429 153 424 q 141 419 141 410 q 141 406 143 400 l 263 89 l 376 400 q 377 404 377 408 q 377 418 365 423 q 353 428 320 433 l 320 454 l 483 454 l 483 433 q 462 428 453 424 q 443 420 438 415 q 433 410 429 400 z"},".":{"x_min":0,"x_max":359,"ha":359,"o":"m 119 40 q 119 44 122 47 q 134 60 146 73 q 158 87 165 97 q 167 102 172 102 q 176 102 178 100 q 180 98 180 98 q 185 94 205 76 q 226 56 231 53 q 238 47 238 42 q 238 39 236 36 q 234 33 234 32 q 229 23 213 5 q 197 -14 188 -19 q 185 -21 182 -21 q 179 -21 176 -19 q 167 -14 150 2 q 133 18 124 30 q 119 36 119 40 z"},"p":{"x_min":0,"x_max":530,"ha":530,"o":"m 168 48 l 168 -183 q 168 -201 251 -213 l 251 -234 l 27 -234 l 27 -213 q 62 -205 78 -198 q 95 -191 95 -183 l 95 347 q 95 374 91 386 q 86 398 73 403 q 59 409 27 410 l 27 430 q 61 437 88 446 q 116 455 144 469 l 161 452 l 166 355 q 196 392 229 418 q 261 443 289 456 q 317 469 337 469 q 381 469 416 441 q 451 414 471 362 q 491 310 491 240 q 491 184 464 124 q 437 64 393 25 q 350 -15 304 -15 q 275 -15 239 2 q 202 19 168 48 z m 168 298 l 168 104 q 209 73 241 61 q 274 49 303 49 q 338 49 366 67 q 394 85 409 121 q 425 157 425 208 q 425 263 408 309 q 391 355 363 381 q 335 408 304 408 q 291 408 269 397 q 248 386 221 362 q 195 337 168 298 z"},"X":{"x_min":0,"x_max":615,"ha":615,"o":"m 380 21 q 412 24 425 30 q 439 35 439 44 q 439 50 431 62 l 295 261 l 172 62 q 166 52 166 45 q 166 34 182 29 q 199 23 235 21 l 235 0 l 15 0 l 15 21 q 48 23 70 33 q 92 42 104 62 l 259 314 l 96 553 q 86 568 77 575 q 68 583 55 587 q 43 591 20 594 l 20 615 l 240 615 l 240 594 q 208 591 194 586 q 180 582 180 572 q 180 564 188 553 l 309 376 l 419 553 q 425 563 425 570 q 425 581 408 586 q 392 591 355 594 l 355 615 l 576 615 l 576 594 q 539 590 519 582 q 499 573 487 553 l 345 323 l 523 62 q 537 42 553 33 q 570 25 600 21 l 600 0 l 380 0 z"},"*":{"x_min":0,"x_max":359,"ha":359,"o":"m 178 553 q 176 553 173 551 q 170 550 158 541 q 150 536 141 530 q 131 523 129 522 q 128 521 126 521 q 124 521 121 523 q 119 525 119 528 q 119 532 123 542 q 126 552 128 556 q 135 571 135 575 q 135 583 132 585 q 123 593 110 601 q 97 610 95 611 q 92 614 92 617 q 92 623 99 623 l 143 623 q 152 623 155 631 l 159 644 q 162 651 166 664 q 170 677 171 678 q 173 683 178 683 q 180 683 181 682 q 183 681 184 678 l 189 665 q 200 636 201 631 q 204 623 214 623 l 255 623 q 262 623 262 617 q 262 616 261 614 q 259 611 257 610 q 236 596 224 585 q 221 583 221 575 q 221 571 228 555 q 235 535 235 529 q 235 526 234 524 q 232 521 229 521 q 229 521 228 522 q 228 522 227 522 q 222 524 193 544 q 190 547 187 549 q 185 550 183 551 q 180 553 178 553 z"},"Y":{"x_min":0,"x_max":594,"ha":594,"o":"m 176 21 q 217 29 236 39 q 256 48 256 56 l 256 262 q 222 336 171 423 q 120 510 82 562 q 75 571 66 576 q 58 582 43 585 q 27 589 2 589 l 0 610 q 73 620 107 620 q 130 620 145 601 q 181 555 225 480 q 269 405 304 332 l 435 562 q 438 567 438 571 q 438 580 425 585 q 411 591 381 594 l 381 615 l 574 615 l 574 594 q 539 587 522 581 q 505 574 498 562 l 334 264 l 334 56 q 334 49 354 39 q 374 29 415 21 l 415 0 l 176 0 z"},"c":{"x_min":0,"x_max":437,"ha":437,"o":"m 39 217 q 39 286 72 344 q 105 401 162 435 q 219 469 288 469 q 321 469 354 458 q 387 447 403 430 q 405 419 395 392 q 385 365 375 350 l 357 355 q 351 369 336 382 q 322 396 299 406 q 275 415 244 415 q 209 415 179 394 q 149 373 131 332 q 112 291 112 232 q 112 178 133 136 q 154 95 188 72 q 223 49 262 49 q 284 49 298 52 q 313 56 334 69 q 356 83 391 113 l 410 93 q 369 44 340 21 q 311 -1 286 -8 q 262 -15 227 -15 q 179 -15 135 14 q 92 42 66 94 q 39 147 39 217 z"},"!":{"x_min":0,"x_max":359,"ha":359,"o":"m 159 294 q 140 507 140 529 q 140 544 146 552 q 160 577 172 594 q 184 610 197 621 q 202 625 206 625 q 208 625 211 622 q 213 619 213 615 l 214 565 q 215 462 215 461 l 215 256 q 215 246 214 239 q 209 225 201 209 q 193 194 187 184 q 186 183 183 180 q 181 177 178 177 q 169 177 167 202 z m 132 40 q 132 44 135 47 q 164 77 178 97 q 181 102 186 102 q 188 102 190 100 q 192 98 193 98 q 198 94 218 76 q 239 56 244 53 q 251 47 251 42 q 251 40 250 37 q 248 34 247 32 q 242 22 226 4 q 210 -14 201 -19 q 198 -21 195 -21 q 192 -21 189 -19 q 180 -14 164 2 q 147 18 136 30 q 132 36 132 40 z"},"/":{"x_min":0,"x_max":359,"ha":359,"o":"m 264 535 q 267 543 270 549 q 273 554 279 559 l 312 586 q 322 595 329 595 q 332 595 333 593 q 335 591 335 589 q 335 586 333 581 q 332 576 331 571 q 323 553 263 406 l 199 248 l 189 224 q 125 62 97 -3 q 90 -19 84 -32 q 78 -44 74 -49 q 71 -52 60 -62 q 48 -71 40 -76 q 33 -80 30 -80 q 20 -80 20 -71 q 20 -68 23 -58 q 31 -39 40 -20 q 48 0 56 18 q 62 34 91 100 q 120 167 147 234 q 212 395 264 535 z"},"[":{"x_min":0,"x_max":359,"ha":359,"o":"m 72 104 q 74 196 74 270 q 74 330 69 456 q 66 528 66 535 q 66 565 80 586 q 94 606 121 606 l 307 606 q 311 606 313 606 q 316 605 316 604 q 316 602 313 600 q 293 574 275 562 q 271 558 268 557 q 265 556 261 556 l 164 556 q 154 556 145 548 q 135 540 135 526 q 133 504 133 409 q 132 315 132 264 q 132 211 134 118 q 136 25 138 -40 q 138 -55 145 -62 q 152 -70 166 -70 l 301 -70 q 309 -70 312 -71 q 315 -72 315 -74 q 315 -76 313 -79 q 311 -82 310 -83 q 291 -107 276 -116 q 273 -119 270 -119 q 266 -120 260 -120 l 145 -120 q 106 -120 90 -108 q 79 -99 74 -87 q 69 -76 69 -61 q 69 -20 70 32 q 71 84 72 104 z"},"6":{"x_min":0,"x_max":499,"ha":499,"o":"m 287 581 q 292 587 300 592 q 307 596 309 598 q 323 605 346 616 q 370 626 378 626 q 386 626 386 621 q 386 617 380 608 q 374 600 362 583 l 354 572 q 328 538 267 449 q 206 361 206 355 q 206 354 206 353 q 207 353 208 353 q 208 353 229 367 q 250 381 290 381 q 355 381 401 334 q 424 312 436 278 q 448 245 448 202 q 448 160 424 116 q 400 73 363 40 q 301 -14 231 -14 q 187 -14 146 12 q 106 39 82 81 q 58 124 58 167 q 58 203 68 233 q 78 264 97 302 q 124 355 184 444 q 245 533 287 581 z m 249 308 q 218 308 192 294 q 165 280 149 255 q 133 230 133 198 q 133 162 150 131 q 167 101 198 83 q 228 66 264 66 q 296 66 321 81 q 346 95 360 121 q 374 147 374 180 q 374 199 368 220 q 363 240 353 255 q 334 280 307 294 q 280 308 249 308 z"},"r":{"x_min":0,"x_max":396,"ha":396,"o":"m 334 330 q 329 367 314 384 q 300 400 280 400 q 264 400 244 383 q 224 366 203 330 q 183 294 168 242 l 168 51 q 168 43 188 35 q 208 27 251 21 l 251 0 l 27 0 l 27 21 q 61 29 78 36 q 95 43 95 51 l 95 335 q 95 364 92 378 q 89 392 84 397 q 78 403 66 406 q 54 409 27 410 l 27 430 q 73 441 98 449 q 123 457 144 469 l 161 452 l 167 341 q 196 399 231 434 q 266 469 306 469 q 344 469 376 451 q 380 448 380 435 q 380 416 372 383 q 364 351 355 330 z"},"2":{"x_min":0,"x_max":499,"ha":499,"o":"m 180 186 l 195 207 q 205 221 222 244 q 249 280 266 305 q 283 331 295 359 q 307 387 307 412 q 307 430 299 450 q 291 470 275 486 q 260 502 238 510 q 217 518 180 523 q 144 528 114 528 q 107 528 103 531 q 99 533 99 536 q 99 538 100 540 q 102 542 103 544 q 111 559 151 609 q 154 612 159 615 q 165 619 171 619 q 187 619 203 617 q 257 611 298 596 q 339 581 365 549 q 385 525 394 504 q 402 483 402 448 q 402 414 381 376 q 360 338 321 291 q 301 265 272 222 q 243 178 222 141 q 201 103 200 93 q 200 89 202 87 q 204 84 207 84 l 431 84 q 440 84 440 78 q 440 73 438 70 q 430 56 417 36 q 404 16 396 7 q 392 3 388 2 q 385 1 381 1 l 94 1 q 79 1 79 12 q 79 13 81 20 q 95 60 120 99 q 146 139 180 186 z"},"{":{"x_min":0,"x_max":357,"ha":357,"o":"m 181 146 l 181 2 q 181 -25 191 -48 q 200 -72 225 -83 l 281 -109 q 286 -112 286 -115 q 286 -118 279 -122 q 269 -128 253 -134 q 245 -136 239 -136 q 231 -136 205 -125 q 168 -110 148 -90 q 128 -71 120 -43 q 111 -15 111 27 l 111 166 q 111 184 109 195 q 107 206 99 216 q 91 227 73 234 q 67 237 65 240 q 63 243 63 247 q 63 255 73 260 q 91 268 99 278 q 107 288 109 299 q 111 310 111 328 l 111 454 q 111 497 120 525 q 128 553 148 573 q 168 592 205 606 q 223 615 265 626 q 277 630 279 630 q 286 630 286 625 q 286 621 284 617 q 280 610 270 590 q 265 582 259 580 q 251 576 229 567 q 181 547 181 479 l 181 348 q 181 324 175 309 q 169 293 159 282 q 148 271 128 255 q 127 255 125 252 q 123 250 123 247 q 123 244 124 242 q 125 240 126 239 q 127 238 128 238 q 148 223 159 212 q 169 201 175 185 q 181 169 181 146 z"},"9":{"x_min":0,"x_max":499,"ha":499,"o":"m 283 228 q 281 227 263 222 q 246 216 221 216 q 191 216 163 228 q 134 239 111 262 q 57 318 57 397 q 57 437 70 470 q 83 502 108 536 q 134 572 176 595 q 217 619 262 619 q 311 619 354 593 q 398 567 424 524 q 451 480 451 432 q 451 389 436 347 q 421 305 396 262 q 375 228 332 164 q 289 100 266 68 q 257 56 244 43 q 236 36 213 20 q 190 3 169 -9 q 147 -22 139 -22 q 135 -22 133 -19 q 130 -15 130 -11 q 130 -6 134 0 q 148 21 168 50 q 286 220 286 223 q 286 228 283 228 z m 143 489 q 128 466 128 426 q 128 391 139 366 q 150 341 170 322 q 187 308 213 299 q 238 291 262 291 q 287 291 303 297 q 319 303 333 317 q 349 333 359 357 q 369 381 369 412 q 369 451 350 479 q 331 508 299 524 q 267 539 229 539 q 203 539 180 525 q 157 512 143 489 z"}," ":{"x_min":0,"x_max":205,"ha":205,"o":""},"I":{"x_min":0,"x_max":298,"ha":298,"o":"m 34 21 q 66 27 86 36 q 105 44 105 51 l 105 564 q 105 570 86 579 q 67 588 34 594 l 34 615 l 254 615 l 254 594 q 221 587 202 579 q 183 571 183 564 l 183 51 q 183 44 202 36 q 221 27 254 21 l 254 0 l 34 0 z"},"H":{"x_min":0,"x_max":654,"ha":654,"o":"m 24 21 q 57 27 76 36 q 95 44 95 51 l 95 564 q 95 570 76 579 q 58 588 24 594 l 24 615 l 244 615 l 244 594 q 211 587 192 579 q 173 571 173 564 l 173 344 l 471 344 l 471 564 q 471 570 452 579 q 434 588 400 594 l 400 615 l 620 615 l 620 594 q 587 587 568 579 q 549 571 549 564 l 549 51 q 549 44 568 36 q 587 27 620 21 l 620 0 l 400 0 l 400 21 q 433 27 452 36 q 471 44 471 51 l 471 300 l 173 300 l 173 51 q 173 44 192 36 q 211 27 244 21 l 244 0 l 24 0 z"},"4":{"x_min":0,"x_max":499,"ha":499,"o":"m 259 186 l 83 186 q 63 186 54 204 q 44 223 44 247 q 44 273 58 313 q 71 353 87 389 q 104 426 114 443 q 148 504 191 549 q 234 593 293 625 q 298 628 306 628 q 313 628 319 623 q 325 618 327 610 q 333 553 336 475 q 338 396 340 295 l 340 279 q 341 272 343 271 q 346 269 350 269 l 447 269 q 456 269 456 262 q 456 258 454 255 q 448 245 437 228 q 427 211 417 197 q 414 191 410 189 q 406 187 398 187 l 351 187 q 345 187 344 185 q 342 183 342 179 q 342 166 343 153 l 343 70 q 343 59 339 49 q 316 5 296 -18 q 291 -22 287 -22 q 283 -22 280 -18 q 277 -15 277 -8 q 277 60 275 139 l 275 173 q 275 181 271 183 q 268 186 259 186 z m 245 509 q 240 509 234 506 q 212 495 197 479 q 181 464 166 444 q 147 417 125 366 q 104 316 104 296 q 104 283 109 276 q 114 269 123 269 l 264 269 q 267 269 270 271 q 272 274 272 279 q 271 316 267 381 q 263 446 255 498 q 255 509 245 509 z"},"D":{"x_min":0,"x_max":593,"ha":593,"o":"m 24 0 l 24 21 q 57 27 76 36 q 95 44 95 51 l 95 580 q 103 581 47 574 q 39 572 24 570 l 20 601 q 64 613 130 621 q 196 630 253 630 q 343 630 410 594 q 477 559 512 491 q 548 423 548 330 q 548 216 506 142 q 463 67 400 34 q 337 0 273 0 z m 173 75 q 173 64 178 58 q 186 49 205 45 q 225 41 262 41 q 310 41 357 72 q 404 103 435 164 q 465 225 465 311 q 465 397 437 460 q 408 522 354 556 q 299 589 221 589 q 197 589 173 587 z"},"^":{"x_min":0,"x_max":499,"ha":499,"o":"m 461 271 q 463 267 463 262 q 463 259 462 257 q 460 255 457 253 l 423 232 q 419 229 416 229 q 408 229 404 236 q 394 256 362 317 q 330 377 314 404 l 292 445 q 257 506 248 521 l 183 406 q 170 384 138 323 q 105 261 94 240 q 88 232 83 232 q 80 232 76 234 l 41 254 q 33 258 33 265 q 33 269 35 272 q 47 292 82 351 q 117 410 132 437 q 149 467 203 569 l 218 597 q 222 604 225 608 q 229 612 234 612 l 263 612 q 269 612 272 608 q 276 605 280 597 l 363 439 q 375 416 412 354 q 448 292 461 271 z"},"0":{"x_min":0,"x_max":499,"ha":499,"o":"m 121 529 q 144 559 163 577 q 182 596 205 607 q 228 619 255 619 q 302 619 342 591 q 382 563 405 524 q 428 485 436 429 q 443 374 443 307 q 443 247 432 199 q 420 156 401 114 q 381 72 346 38 q 327 21 314 10 q 302 0 283 -7 q 264 -14 240 -14 q 198 -14 167 6 q 135 27 109 67 q 90 99 78 166 q 66 232 66 297 q 66 361 78 425 q 91 489 121 529 z m 326 90 q 336 103 343 126 q 350 149 354 177 q 365 243 365 302 q 365 375 348 440 q 337 484 304 511 q 271 537 228 537 q 199 537 184 521 q 170 505 165 485 q 144 419 144 320 q 144 272 151 223 q 158 174 168 143 q 174 125 189 109 q 204 92 226 82 q 248 72 274 72 q 289 72 303 76 q 318 81 326 90 z"},"F":{"x_min":0,"x_max":478,"ha":478,"o":"m 24 21 q 57 27 76 36 q 95 44 95 51 l 95 564 q 95 570 76 579 q 58 588 24 594 l 24 615 l 423 615 l 438 603 q 438 580 431 547 q 425 514 419 493 l 396 493 q 395 537 385 554 q 375 571 356 571 l 173 571 l 173 359 l 356 359 l 370 345 q 359 330 346 314 q 333 298 324 291 q 310 306 289 312 q 268 318 228 318 l 173 318 l 173 51 q 173 37 259 21 l 259 0 l 24 0 z"},"`":{"x_min":0,"x_max":319,"ha":319,"o":"m 15 695 l 25 715 q 40 718 62 722 q 85 726 97 727 l 214 526 q 201 516 187 511 z"},"k":{"x_min":0,"x_max":500,"ha":500,"o":"m 27 21 q 65 31 80 37 q 95 43 95 51 l 95 633 q 95 663 90 675 q 84 688 73 691 q 61 694 27 698 l 27 718 q 68 727 98 735 q 128 744 150 757 l 168 740 l 168 259 l 319 390 q 340 410 340 419 q 340 427 329 430 q 317 433 298 433 l 298 454 l 483 454 l 483 433 q 459 431 441 424 q 424 418 405 403 l 238 270 l 422 54 q 434 41 447 35 q 460 29 481 29 q 491 29 497 30 l 500 9 q 473 2 447 -1 q 421 -5 410 -5 q 390 -5 377 1 q 365 7 354 21 l 168 255 l 168 51 q 168 45 172 42 q 175 38 187 33 q 198 28 222 21 l 222 0 l 27 0 z"},"u":{"x_min":0,"x_max":530,"ha":530,"o":"m 374 81 q 318 25 277 5 q 236 -15 199 -15 q 147 -15 115 19 q 83 52 83 136 l 83 347 q 83 381 80 393 q 76 405 65 409 q 53 414 20 417 l 20 437 q 54 441 82 448 q 109 456 143 469 l 156 450 l 156 163 q 156 98 175 71 q 194 44 231 44 q 263 44 297 63 q 332 83 374 128 l 374 347 q 374 378 369 392 q 364 405 351 410 q 337 416 305 417 l 305 437 q 336 440 366 448 q 396 457 432 469 l 447 450 l 447 124 q 447 92 449 73 q 452 55 458 51 q 462 48 469 48 q 486 48 517 62 l 522 40 q 484 15 455 0 q 427 -15 415 -15 q 379 -15 374 81 z"},"]":{"x_min":0,"x_max":358,"ha":358,"o":"m 212 -120 l 96 -120 q 90 -120 87 -119 q 83 -119 80 -116 q 72 -110 45 -83 q 44 -81 43 -78 q 41 -76 41 -74 q 41 -72 44 -71 q 47 -70 55 -70 l 190 -70 q 204 -70 211 -62 q 219 -55 219 -40 l 220 0 q 224 246 224 264 q 224 315 223 409 q 223 504 221 526 q 221 540 212 548 q 203 556 193 556 l 95 556 q 91 556 88 557 q 85 558 81 562 q 63 574 43 600 q 40 602 40 604 q 40 605 43 606 q 45 606 49 606 l 235 606 q 263 606 277 586 q 291 565 291 535 q 291 528 288 456 q 282 318 282 270 q 282 214 285 104 q 285 84 286 32 q 287 -20 287 -61 q 287 -76 282 -87 q 277 -98 266 -108 q 250 -120 212 -120 z"},"U":{"x_min":0,"x_max":654,"ha":654,"o":"m 552 256 q 552 171 524 110 q 497 49 446 17 q 395 -15 325 -15 q 256 -15 205 10 q 153 36 124 88 q 95 140 95 217 l 95 564 q 95 570 76 579 q 58 588 24 594 l 24 615 l 244 615 l 244 594 q 211 587 192 579 q 173 571 173 564 l 173 241 q 173 146 218 94 q 262 42 344 42 q 389 42 421 69 q 454 97 471 141 q 488 186 488 236 l 488 564 q 488 570 469 579 q 451 588 417 594 l 417 615 l 623 615 l 623 594 q 590 587 571 579 q 552 571 552 564 z"},"o":{"x_min":0,"x_max":503,"ha":503,"o":"m 39 217 q 39 281 69 339 q 100 397 151 433 q 202 469 261 469 q 321 469 367 439 q 414 409 439 356 q 464 303 464 237 q 464 173 433 115 q 402 57 351 21 q 300 -15 242 -15 q 182 -15 135 15 q 89 45 64 98 q 39 150 39 217 z m 115 231 q 115 182 137 137 q 159 93 192 66 q 226 39 256 39 q 323 39 355 87 q 388 136 388 222 q 388 272 367 317 q 346 361 313 388 q 280 415 247 415 q 177 415 146 365 q 115 316 115 231 z"},"N":{"x_min":0,"x_max":649,"ha":649,"o":"m 24 21 q 47 24 63 29 q 79 34 87 40 q 95 46 95 51 l 95 561 q 66 588 24 594 l 24 615 l 128 615 q 138 615 143 613 q 149 610 155 603 q 161 596 175 577 l 496 135 l 496 564 q 496 571 478 580 q 460 589 425 594 l 425 615 l 625 615 l 625 594 q 592 590 573 581 q 554 572 554 564 l 554 -15 q 531 -12 517 -5 q 502 1 496 10 l 154 485 l 154 51 q 154 46 162 41 q 169 35 185 30 q 201 24 225 21 l 225 0 l 24 0 z"},"+":{"x_min":0,"x_max":499,"ha":499,"o":"m 72 244 q 63 244 61 248 q 58 251 58 257 l 58 295 q 58 302 61 306 q 63 309 72 309 q 85 309 127 308 q 168 307 217 306 l 214 453 q 214 464 229 464 l 266 464 q 272 464 276 461 q 279 458 279 451 q 278 435 277 386 q 276 337 276 306 q 310 306 360 307 q 411 309 427 309 q 434 309 437 306 q 439 304 439 295 l 439 257 q 439 251 436 248 q 433 244 425 244 q 409 244 364 245 q 320 246 276 247 l 279 97 q 279 89 276 86 q 272 83 266 83 l 229 83 q 221 83 218 86 q 214 89 214 97 q 215 112 216 154 q 216 197 217 247 z"},"G":{"x_min":0,"x_max":583,"ha":583,"o":"m 446 526 q 416 555 380 566 q 344 576 292 576 q 261 576 218 550 q 175 523 143 463 q 110 404 110 311 q 110 225 139 165 q 169 104 216 74 q 263 44 315 44 q 385 44 435 71 l 435 237 q 435 249 412 258 q 390 268 334 277 l 334 298 l 559 298 l 559 277 q 533 271 520 260 q 508 249 508 237 l 508 75 q 461 37 426 18 q 391 -2 363 -8 q 335 -15 302 -15 q 233 -15 172 19 q 111 53 73 121 q 34 188 34 284 q 34 390 78 468 q 121 546 195 588 q 270 630 360 630 q 394 630 436 616 q 479 603 509 580 q 519 573 462 523 z"},"q":{"x_min":0,"x_max":515,"ha":515,"o":"m 281 -213 q 325 -207 344 -199 q 364 -192 364 -183 l 364 81 q 323 32 286 9 q 250 -15 203 -15 q 166 -15 127 14 q 89 42 64 95 q 39 148 39 217 q 39 270 60 315 q 82 360 111 391 q 141 422 168 437 q 195 452 223 460 q 250 469 269 469 q 299 469 325 459 q 352 450 382 423 q 395 432 410 445 q 426 458 437 469 l 452 454 q 451 451 448 437 q 444 422 440 399 q 437 376 437 350 l 437 -183 q 437 -201 505 -213 l 505 -234 l 281 -234 z m 364 356 q 348 384 318 400 q 289 415 254 415 q 216 415 184 394 q 152 373 132 332 q 112 291 112 232 q 112 180 132 138 q 151 96 181 72 q 210 49 238 49 q 259 49 280 60 q 300 70 319 86 q 337 102 364 127 z"},"d":{"x_min":0,"x_max":520,"ha":520,"o":"m 365 83 q 324 33 287 9 q 250 -15 203 -15 q 166 -15 127 14 q 89 42 64 95 q 39 148 39 217 q 39 274 69 333 q 99 392 151 430 q 204 469 269 469 q 295 469 317 462 q 339 456 364 438 l 364 622 q 364 662 360 677 q 356 692 343 698 q 329 704 293 706 l 293 725 q 328 729 355 737 q 382 744 422 757 l 437 742 l 437 124 q 437 91 440 75 q 442 59 448 52 q 451 48 458 48 q 471 48 507 62 l 513 41 q 468 11 443 -2 q 418 -15 405 -15 q 388 -15 378 8 q 368 31 365 83 z m 254 415 q 212 415 180 395 q 148 374 130 333 q 112 292 112 232 q 112 180 132 138 q 151 96 181 72 q 210 49 238 49 q 259 49 280 60 q 300 70 319 86 q 337 102 364 127 l 364 356 q 348 384 318 400 q 289 415 254 415 z"},"1":{"x_min":0,"x_max":499,"ha":499,"o":"m 83 70 q 87 76 92 79 q 96 81 107 81 l 183 81 q 196 81 206 92 q 216 102 216 120 q 216 139 217 149 l 217 180 q 217 330 206 433 q 198 500 151 500 l 115 500 q 106 500 99 502 q 93 505 93 513 q 93 518 96 521 q 121 543 168 575 q 215 606 251 625 q 256 628 264 628 q 272 628 277 623 q 282 619 284 610 q 288 579 291 519 q 293 458 293 441 q 293 415 294 372 q 295 329 295 281 q 298 134 298 111 q 298 97 304 89 q 311 81 325 81 l 422 81 q 425 81 428 78 q 432 76 432 72 q 432 70 428 64 q 421 54 413 44 q 405 34 396 23 q 397 24 386 11 q 379 2 375 1 q 371 -1 360 -1 l 66 -1 q 55 -1 50 0 q 44 1 44 6 q 44 9 47 14 q 66 46 83 70 z"},"5":{"x_min":0,"x_max":499,"ha":499,"o":"m 121 89 q 123 89 129 87 q 149 81 182 75 q 215 70 237 70 q 258 70 274 75 q 290 79 303 90 q 319 104 330 127 q 341 150 341 174 q 341 198 330 219 q 318 241 298 255 q 280 269 250 275 q 221 281 180 281 l 144 281 q 125 281 115 289 q 106 297 105 310 q 103 355 102 399 q 101 443 101 508 q 101 512 100 520 q 99 527 99 533 q 99 546 103 554 l 109 568 q 121 591 127 603 q 134 614 142 624 q 145 628 150 628 q 159 628 162 623 q 175 600 180 593 q 183 590 187 589 q 190 588 196 588 l 396 588 q 404 588 408 585 q 412 583 412 579 q 412 577 410 573 q 408 570 407 568 q 404 564 398 554 q 381 525 371 512 q 367 507 363 506 q 358 504 350 504 l 184 504 q 175 504 172 501 q 168 499 168 491 q 168 477 169 444 q 170 411 170 390 q 170 379 177 372 q 184 364 192 364 l 246 364 q 280 364 319 348 q 359 332 387 298 q 416 263 416 211 q 416 184 406 158 q 396 132 377 100 q 357 67 372 93 q 340 45 294 15 q 248 -14 197 -14 q 167 -14 132 -8 q 97 -1 74 10 q 69 12 68 14 q 66 16 66 19 q 66 23 69 29 q 95 65 110 84 q 114 89 121 89 z"}}}
